<?xml version="1.0" encoding="UTF-8"?>
<!DOCTYPE svg PUBLIC "-//W3C//DTD SVG 1.1//EN" "http://www.w3.org/Graphics/SVG/1.1/DTD/svg11.dtd">
<!-- Creator: CorelDRAW 2020 (64-Bit) -->
<svg xmlns="http://www.w3.org/2000/svg" xml:space="preserve" width="17.4855mm" height="12.7289mm" version="1.1" style="shape-rendering:geometricPrecision; text-rendering:geometricPrecision; image-rendering:optimizeQuality; fill-rule:evenodd; clip-rule:evenodd"
viewBox="0 0 223.72 162.86"
 xmlns:xlink="http://www.w3.org/1999/xlink"
 xmlns:xodm="http://www.corel.com/coreldraw/odm/2003">
 <defs>
  <style type="text/css">
   <![CDATA[
    .fil0 {fill:#313C4E;fill-rule:nonzero}
   ]]>
  </style>
 </defs>
 <g id="Capa_x0020_1">
  <metadata id="CorelCorpID_0Corel-Layer"/>
  <path class="fil0" d="M50.58 0.02c0.14,-0 0.28,-0 0.42,-0 14.06,0 27.42,6.14 36.56,16.82 5.06,5.5 8.99,11.94 11.55,18.95 2.81,7.16 4.27,14.81 4.3,22.51 -0.44,17.26 -5.86,34.06 -15.57,48.35 -10.72,16.65 -24.95,30.89 -41.61,41.6 -14.74,9.71 -26.3,14.61 -34.67,14.61 -0.14,0 -0.28,0 -0.43,0 -2.92,0 -5.73,-1.09 -7.89,-3.06 -2.07,-1.95 -3.25,-4.68 -3.25,-7.53 0,-0.17 0.01,-0.34 0.01,-0.51 0,-4.99 3.14,-9.24 9.52,-12.53 12.38,-5.82 23.7,-13.76 33.41,-23.39 6.7,-7.21 10.03,-12.48 10.03,-15.81 0,-3.33 -2.5,-5.13 -7.53,-5.78l-3.24 -0.51 -3.79 -0.28c-10.41,-1.34 -19.91,-6.68 -26.48,-14.88 -6.59,-8.39 -10.19,-18.76 -10.19,-29.43 0,-0.45 0.01,-0.91 0.02,-1.35 0,-0.28 -0.01,-0.59 -0.01,-0.88 0,-11.71 4.48,-22.98 12.53,-31.48 9.04,-9.84 21.8,-15.45 35.17,-15.45 0.37,0 0.76,0.01 1.12,0.01l-0 0zm120.36 0c0.13,-0 0.27,-0 0.4,-0 14.06,0 27.43,6.16 36.57,16.83 5.04,5.5 8.98,11.94 11.55,18.95 2.78,7.18 4.22,14.82 4.25,22.51 -0.41,17.27 -5.84,34.07 -15.58,48.34 -10.69,16.69 -24.91,30.91 -41.59,41.6 -14.74,9.71 -26.3,14.61 -34.67,14.61 -0.15,0 -0.3,0.01 -0.44,0.01 -2.9,0 -5.7,-1.09 -7.83,-3.06 -2.1,-1.97 -3.29,-4.72 -3.29,-7.59 0,-0.15 0,-0.3 0.01,-0.45 0,-4.99 3.19,-9.24 9.57,-12.52 12.36,-5.83 23.66,-13.78 33.37,-23.39 6.7,-7.21 10.08,-12.48 10.08,-15.81 0,-3.33 -2.54,-5.13 -7.53,-5.78l-3.28 -0.51 -3.74 -0.28c-10.47,-1.3 -20.05,-6.64 -26.67,-14.88 -6.59,-8.39 -10.19,-18.76 -10.19,-29.43 0,-0.45 0.01,-0.91 0.02,-1.35 0,-0.27 -0.01,-0.54 -0.01,-0.81 0,-11.74 4.51,-23.03 12.58,-31.55 9.02,-9.85 21.76,-15.45 35.11,-15.45 0.44,0 0.88,0.01 1.31,0.02l-0 0z"/>
 </g>
</svg>
