<?xml version="1.0" encoding="UTF-8"?>
<!DOCTYPE svg PUBLIC "-//W3C//DTD SVG 1.1//EN" "http://www.w3.org/Graphics/SVG/1.1/DTD/svg11.dtd">
<!-- Creator: CorelDRAW 2020 (64-Bit) -->
<svg xmlns="http://www.w3.org/2000/svg" xml:space="preserve" width="12.884mm" height="9.3792mm" version="1.1" style="shape-rendering:geometricPrecision; text-rendering:geometricPrecision; image-rendering:optimizeQuality; fill-rule:evenodd; clip-rule:evenodd"
viewBox="0 0 121.46 88.42"
 xmlns:xlink="http://www.w3.org/1999/xlink"
 xmlns:xodm="http://www.corel.com/coreldraw/odm/2003">
 <defs>
  <style type="text/css">
   <![CDATA[
    .fil0 {fill:#313C4E;fill-rule:nonzero}
   ]]>
  </style>
 </defs>
 <g id="Capa_x0020_1">
  <metadata id="CorelCorpID_0Corel-Layer"/>
  <path class="fil0" d="M27.46 0.01c0.08,-0 0.15,-0 0.23,-0 7.63,0 14.88,3.34 19.85,9.13 2.74,2.98 4.88,6.48 6.27,10.29 1.53,3.89 2.32,8.04 2.33,12.22 -0.24,9.37 -3.18,18.5 -8.45,26.25 -5.82,9.04 -13.55,16.77 -22.59,22.59 -8.01,5.27 -14.28,7.93 -18.82,7.93 -0.07,0 -0.15,0 -0.23,0 -1.58,0 -3.11,-0.59 -4.28,-1.66 -1.12,-1.06 -1.76,-2.54 -1.76,-4.09 0,-0.09 0,-0.19 0.01,-0.28 0,-2.71 1.71,-5.02 5.17,-6.8 6.72,-3.16 12.86,-7.47 18.14,-12.7 3.64,-3.92 5.45,-6.78 5.45,-8.58 0,-1.81 -1.35,-2.79 -4.09,-3.14l-1.76 -0.28 -2.06 -0.15c-5.65,-0.73 -10.81,-3.63 -14.38,-8.08 -3.58,-4.55 -5.53,-10.19 -5.53,-15.98 0,-0.24 0,-0.49 0.01,-0.73 -0,-0.15 -0,-0.32 -0,-0.48 0,-6.36 2.44,-12.47 6.8,-17.09 4.91,-5.34 11.84,-8.39 19.09,-8.39 0.2,0 0.41,0 0.61,0.01l-0 0zm65.35 0c0.07,-0 0.15,-0 0.22,-0 7.63,0 14.89,3.34 19.86,9.14 2.74,2.99 4.87,6.48 6.27,10.29 1.51,3.9 2.29,8.04 2.31,12.22 -0.22,9.38 -3.17,18.5 -8.46,26.25 -5.8,9.06 -13.52,16.78 -22.58,22.59 -8,5.27 -14.28,7.93 -18.82,7.93 -0.08,0 -0.16,0 -0.24,0 -1.58,0 -3.09,-0.59 -4.25,-1.66 -1.14,-1.07 -1.79,-2.56 -1.79,-4.12 0,-0.08 0,-0.16 0,-0.25 0,-2.71 1.73,-5.02 5.2,-6.8 6.71,-3.17 12.85,-7.48 18.12,-12.7 3.64,-3.92 5.47,-6.78 5.47,-8.58 0,-1.81 -1.38,-2.79 -4.09,-3.14l-1.78 -0.28 -2.03 -0.15c-5.69,-0.7 -10.89,-3.61 -14.48,-8.08 -3.58,-4.55 -5.53,-10.19 -5.53,-15.98 0,-0.24 0,-0.49 0.01,-0.73 0,-0.14 -0,-0.29 -0,-0.44 0,-6.37 2.45,-12.51 6.83,-17.13 4.89,-5.35 11.81,-8.39 19.06,-8.39 0.24,0 0.48,0 0.71,0.01l-0 0z"/>
 </g>
</svg>
